<?xml version="1.0" encoding="UTF-8" standalone="no"?>
<!DOCTYPE svg PUBLIC "-//W3C//DTD SVG 1.1//EN"
 "http://www.w3.org/Graphics/SVG/1.1/DTD/svg11.dtd">
<!-- Generated by graphviz version 8.0.2 (20230410.1723)
 -->
<!-- Title: matchings Pages: 1 -->
<svg width="416pt" height="892pt"
 viewBox="0.00 0.00 416.16 892.28" xmlns="http://www.w3.org/2000/svg" xmlns:xlink="http://www.w3.org/1999/xlink">
<g id="graph0" class="graph" transform="scale(1 1) rotate(0) translate(4 888.28)">
<title>matchings</title>
<polygon fill="white" stroke="none" points="-4,4 -4,-888.28 412.16,-888.28 412.16,4 -4,4"/>
<!-- 0 -->
<g id="m0" class="node">
<title>0</title>
<ellipse fill="lightgrey" stroke="black" cx="203.58" cy="-825.59" rx="97.66" ry="58.88"/>
<text text-anchor="middle" x="203.58" y="-851.89" font-family="Times,serif" font-size="14.00">f1: w9, w11, w5, w4, </text>
<text text-anchor="middle" x="203.58" y="-836.89" font-family="Times,serif" font-size="14.00">f2: w7, </text>
<text text-anchor="middle" x="203.58" y="-821.89" font-family="Times,serif" font-size="14.00">f3: w6, w8, w3, </text>
<text text-anchor="middle" x="203.58" y="-806.89" font-family="Times,serif" font-size="14.00">f4: w1, w2, </text>
<text text-anchor="middle" x="203.58" y="-791.89" font-family="Times,serif" font-size="14.00">f5: w10, </text>
</g>
<!-- 1 -->
<g id="m1" class="node">
<title>1</title>
<ellipse fill="lightgrey" stroke="black" cx="203.58" cy="-672.21" rx="97.66" ry="58.88"/>
<text text-anchor="middle" x="203.58" y="-698.51" font-family="Times,serif" font-size="14.00">f1: w9, w5, w4, w10, </text>
<text text-anchor="middle" x="203.58" y="-683.51" font-family="Times,serif" font-size="14.00">f2: w7, </text>
<text text-anchor="middle" x="203.58" y="-668.51" font-family="Times,serif" font-size="14.00">f3: w6, w8, w3, </text>
<text text-anchor="middle" x="203.58" y="-653.51" font-family="Times,serif" font-size="14.00">f4: w2, w11, </text>
<text text-anchor="middle" x="203.58" y="-638.51" font-family="Times,serif" font-size="14.00">f5: w1, </text>
</g>
<!-- 0&#45;&gt;1 -->
<g id="edge1" class="edge">
<title>0&#45;&gt;1</title>
<path fill="none" stroke="black" d="M203.58,-766.49C203.58,-758.58 203.58,-750.4 203.58,-742.32"/>
<polygon fill="black" stroke="black" points="207.08,-742.4 203.58,-732.4 200.08,-742.4 207.08,-742.4"/>
</g>
<!-- 2 -->
<g id="m2" class="node">
<title>2</title>
<ellipse fill="lightgrey" stroke="black" cx="203.58" cy="-518.83" rx="97.66" ry="58.88"/>
<text text-anchor="middle" x="203.58" y="-545.13" font-family="Times,serif" font-size="14.00">f1: w9, w5, w10, w8, </text>
<text text-anchor="middle" x="203.58" y="-530.13" font-family="Times,serif" font-size="14.00">f2: w7, </text>
<text text-anchor="middle" x="203.58" y="-515.13" font-family="Times,serif" font-size="14.00">f3: w6, w3, w2, </text>
<text text-anchor="middle" x="203.58" y="-500.13" font-family="Times,serif" font-size="14.00">f4: w11, w4, </text>
<text text-anchor="middle" x="203.58" y="-485.13" font-family="Times,serif" font-size="14.00">f5: w1, </text>
</g>
<!-- 1&#45;&gt;2 -->
<g id="edge2" class="edge">
<title>1&#45;&gt;2</title>
<path fill="none" stroke="black" d="M203.58,-613.11C203.58,-605.2 203.58,-597.02 203.58,-588.94"/>
<polygon fill="black" stroke="black" points="207.08,-589.02 203.58,-579.02 200.08,-589.02 207.08,-589.02"/>
</g>
<!-- 3 -->
<g id="m3" class="node">
<title>3</title>
<ellipse fill="lightgrey" stroke="black" cx="203.58" cy="-365.45" rx="97.66" ry="58.88"/>
<text text-anchor="middle" x="203.58" y="-391.75" font-family="Times,serif" font-size="14.00">f1: w5, w10, w8, w1, </text>
<text text-anchor="middle" x="203.58" y="-376.75" font-family="Times,serif" font-size="14.00">f2: w7, </text>
<text text-anchor="middle" x="203.58" y="-361.75" font-family="Times,serif" font-size="14.00">f3: w6, w2, w4, </text>
<text text-anchor="middle" x="203.58" y="-346.75" font-family="Times,serif" font-size="14.00">f4: w11, w9, </text>
<text text-anchor="middle" x="203.58" y="-331.75" font-family="Times,serif" font-size="14.00">f5: w3, </text>
</g>
<!-- 2&#45;&gt;3 -->
<g id="edge3" class="edge">
<title>2&#45;&gt;3</title>
<path fill="none" stroke="black" d="M203.58,-459.73C203.58,-451.82 203.58,-443.64 203.58,-435.56"/>
<polygon fill="black" stroke="black" points="207.08,-435.64 203.58,-425.64 200.08,-435.64 207.08,-435.64"/>
</g>
<!-- 4 -->
<g id="m4" class="node">
<title>4</title>
<ellipse fill="lightgrey" stroke="black" cx="97.58" cy="-212.07" rx="97.66" ry="58.88"/>
<text text-anchor="middle" x="97.58" y="-238.37" font-family="Times,serif" font-size="14.00">f1: w5, w10, w8, w2, </text>
<text text-anchor="middle" x="97.58" y="-223.37" font-family="Times,serif" font-size="14.00">f2: w7, </text>
<text text-anchor="middle" x="97.58" y="-208.37" font-family="Times,serif" font-size="14.00">f3: w6, w4, w1, </text>
<text text-anchor="middle" x="97.58" y="-193.37" font-family="Times,serif" font-size="14.00">f4: w11, w9, </text>
<text text-anchor="middle" x="97.58" y="-178.37" font-family="Times,serif" font-size="14.00">f5: w3, </text>
</g>
<!-- 3&#45;&gt;4 -->
<g id="edge4" class="edge">
<title>3&#45;&gt;4</title>
<path fill="none" stroke="black" d="M165.91,-310.65C157.94,-299.28 149.47,-287.18 141.3,-275.51"/>
<polygon fill="black" stroke="black" points="143.73,-273.88 135.13,-267.69 138,-277.89 143.73,-273.88"/>
</g>
<!-- 5 -->
<g id="m5" class="node">
<title>5</title>
<ellipse fill="lightgrey" stroke="black" cx="310.58" cy="-212.07" rx="97.66" ry="58.88"/>
<text text-anchor="middle" x="310.58" y="-238.37" font-family="Times,serif" font-size="14.00">f1: w5, w10, w8, w1, </text>
<text text-anchor="middle" x="310.58" y="-223.37" font-family="Times,serif" font-size="14.00">f2: w7, </text>
<text text-anchor="middle" x="310.58" y="-208.37" font-family="Times,serif" font-size="14.00">f3: w6, w2, w4, </text>
<text text-anchor="middle" x="310.58" y="-193.37" font-family="Times,serif" font-size="14.00">f4: w9, w3, </text>
<text text-anchor="middle" x="310.58" y="-178.37" font-family="Times,serif" font-size="14.00">f5: w11, </text>
</g>
<!-- 3&#45;&gt;5 -->
<g id="edge5" class="edge">
<title>3&#45;&gt;5</title>
<path fill="none" stroke="black" d="M241.3,-311.08C249.41,-299.61 258.04,-287.4 266.36,-275.62"/>
<polygon fill="black" stroke="black" points="269.74,-277.91 272.66,-267.72 264.03,-273.87 269.74,-277.91"/>
</g>
<!-- 6 -->
<g id="m6" class="node">
<title>6</title>
<ellipse fill="lightgrey" stroke="black" cx="203.58" cy="-58.69" rx="97.66" ry="58.88"/>
<text text-anchor="middle" x="203.58" y="-84.99" font-family="Times,serif" font-size="14.00">f1: w5, w10, w8, w2, </text>
<text text-anchor="middle" x="203.58" y="-69.99" font-family="Times,serif" font-size="14.00">f2: w7, </text>
<text text-anchor="middle" x="203.58" y="-54.99" font-family="Times,serif" font-size="14.00">f3: w6, w4, w1, </text>
<text text-anchor="middle" x="203.58" y="-39.99" font-family="Times,serif" font-size="14.00">f4: w9, w3, </text>
<text text-anchor="middle" x="203.58" y="-24.99" font-family="Times,serif" font-size="14.00">f5: w11, </text>
</g>
<!-- 4&#45;&gt;6 -->
<g id="edge6" class="edge">
<title>4&#45;&gt;6</title>
<path fill="none" stroke="black" d="M135.25,-157.27C143.22,-145.9 151.69,-133.8 159.86,-122.13"/>
<polygon fill="black" stroke="black" points="163.16,-124.51 166.03,-114.31 157.43,-120.5 163.16,-124.51"/>
</g>
<!-- 5&#45;&gt;6 -->
<g id="edge7" class="edge">
<title>5&#45;&gt;6</title>
<path fill="none" stroke="black" d="M272.86,-157.7C264.75,-146.24 256.12,-134.02 247.8,-122.24"/>
<polygon fill="black" stroke="black" points="250.14,-120.49 241.51,-114.34 244.42,-124.53 250.14,-120.49"/>
</g>
</g>
</svg>
