<?xml version="1.0" encoding="UTF-8" standalone="no"?>
<!DOCTYPE svg PUBLIC "-//W3C//DTD SVG 1.1//EN"
 "http://www.w3.org/Graphics/SVG/1.1/DTD/svg11.dtd">
<!-- Generated by graphviz version 2.43.0 (0)
 -->
<!-- Title: matchings Pages: 1 -->
<svg width="504pt" height="892pt"
 viewBox="0.00 0.00 504.00 892.28" xmlns="http://www.w3.org/2000/svg" xmlns:xlink="http://www.w3.org/1999/xlink">
<g id="graph0" class="graph" transform="scale(1 1) rotate(0) translate(4 888.28)">
<title>matchings</title>
<polygon fill="white" stroke="transparent" points="-4,4 -4,-888.28 500,-888.28 500,4 -4,4"/>
<!-- 0 -->
<g id="m0" class="node">
<title>0</title>
<ellipse fill="lightgrey" stroke="black" cx="247.5" cy="-825.59" rx="119.5" ry="58.88"/>
<text text-anchor="middle" x="247.5" y="-851.89" font-family="Times,serif" font-size="14.00">f1: w9, w11, w5, w4, </text>
<text text-anchor="middle" x="247.5" y="-836.89" font-family="Times,serif" font-size="14.00">f2: w7, </text>
<text text-anchor="middle" x="247.5" y="-821.89" font-family="Times,serif" font-size="14.00">f3: w6, w8, w3, </text>
<text text-anchor="middle" x="247.5" y="-806.89" font-family="Times,serif" font-size="14.00">f4: w1, w2, </text>
<text text-anchor="middle" x="247.5" y="-791.89" font-family="Times,serif" font-size="14.00">f5: w10, </text>
</g>
<!-- 1 -->
<g id="m1" class="node">
<title>1</title>
<ellipse fill="lightgrey" stroke="black" cx="247.5" cy="-672.21" rx="119.5" ry="58.88"/>
<text text-anchor="middle" x="247.5" y="-698.51" font-family="Times,serif" font-size="14.00">f1: w9, w5, w4, w10, </text>
<text text-anchor="middle" x="247.5" y="-683.51" font-family="Times,serif" font-size="14.00">f2: w7, </text>
<text text-anchor="middle" x="247.5" y="-668.51" font-family="Times,serif" font-size="14.00">f3: w6, w8, w3, </text>
<text text-anchor="middle" x="247.5" y="-653.51" font-family="Times,serif" font-size="14.00">f4: w2, w11, </text>
<text text-anchor="middle" x="247.5" y="-638.51" font-family="Times,serif" font-size="14.00">f5: w1, </text>
</g>
<!-- 0&#45;&gt;1 -->
<g id="edge1" class="edge">
<title>0&#45;&gt;1</title>
<path fill="none" stroke="black" d="M247.5,-766.49C247.5,-758.25 247.5,-749.72 247.5,-741.31"/>
<polygon fill="black" stroke="black" points="251,-741.15 247.5,-731.15 244,-741.15 251,-741.15"/>
</g>
<!-- 2 -->
<g id="m2" class="node">
<title>2</title>
<ellipse fill="lightgrey" stroke="black" cx="247.5" cy="-518.83" rx="119.5" ry="58.88"/>
<text text-anchor="middle" x="247.5" y="-545.13" font-family="Times,serif" font-size="14.00">f1: w9, w5, w10, w8, </text>
<text text-anchor="middle" x="247.5" y="-530.13" font-family="Times,serif" font-size="14.00">f2: w7, </text>
<text text-anchor="middle" x="247.5" y="-515.13" font-family="Times,serif" font-size="14.00">f3: w6, w3, w2, </text>
<text text-anchor="middle" x="247.5" y="-500.13" font-family="Times,serif" font-size="14.00">f4: w11, w4, </text>
<text text-anchor="middle" x="247.5" y="-485.13" font-family="Times,serif" font-size="14.00">f5: w1, </text>
</g>
<!-- 1&#45;&gt;2 -->
<g id="edge2" class="edge">
<title>1&#45;&gt;2</title>
<path fill="none" stroke="black" d="M247.5,-613.11C247.5,-604.87 247.5,-596.34 247.5,-587.93"/>
<polygon fill="black" stroke="black" points="251,-587.77 247.5,-577.77 244,-587.77 251,-587.77"/>
</g>
<!-- 3 -->
<g id="m3" class="node">
<title>3</title>
<ellipse fill="lightgrey" stroke="black" cx="247.5" cy="-365.45" rx="119.5" ry="58.88"/>
<text text-anchor="middle" x="247.5" y="-391.75" font-family="Times,serif" font-size="14.00">f1: w5, w10, w8, w1, </text>
<text text-anchor="middle" x="247.5" y="-376.75" font-family="Times,serif" font-size="14.00">f2: w7, </text>
<text text-anchor="middle" x="247.5" y="-361.75" font-family="Times,serif" font-size="14.00">f3: w6, w2, w4, </text>
<text text-anchor="middle" x="247.5" y="-346.75" font-family="Times,serif" font-size="14.00">f4: w11, w9, </text>
<text text-anchor="middle" x="247.5" y="-331.75" font-family="Times,serif" font-size="14.00">f5: w3, </text>
</g>
<!-- 2&#45;&gt;3 -->
<g id="edge3" class="edge">
<title>2&#45;&gt;3</title>
<path fill="none" stroke="black" d="M247.5,-459.73C247.5,-451.5 247.5,-442.96 247.5,-434.55"/>
<polygon fill="black" stroke="black" points="251,-434.39 247.5,-424.39 244,-434.39 251,-434.39"/>
</g>
<!-- 4 -->
<g id="m4" class="node">
<title>4</title>
<ellipse fill="lightgrey" stroke="black" cx="119.5" cy="-212.07" rx="119.5" ry="58.88"/>
<text text-anchor="middle" x="119.5" y="-238.37" font-family="Times,serif" font-size="14.00">f1: w5, w10, w8, w2, </text>
<text text-anchor="middle" x="119.5" y="-223.37" font-family="Times,serif" font-size="14.00">f2: w7, </text>
<text text-anchor="middle" x="119.5" y="-208.37" font-family="Times,serif" font-size="14.00">f3: w6, w4, w1, </text>
<text text-anchor="middle" x="119.5" y="-193.37" font-family="Times,serif" font-size="14.00">f4: w11, w9, </text>
<text text-anchor="middle" x="119.5" y="-178.37" font-family="Times,serif" font-size="14.00">f5: w3, </text>
</g>
<!-- 3&#45;&gt;4 -->
<g id="edge4" class="edge">
<title>3&#45;&gt;4</title>
<path fill="none" stroke="black" d="M202.37,-311.08C192.34,-299.21 181.62,-286.53 171.34,-274.37"/>
<polygon fill="black" stroke="black" points="173.78,-271.84 164.65,-266.47 168.44,-276.36 173.78,-271.84"/>
</g>
<!-- 5 -->
<g id="m5" class="node">
<title>5</title>
<ellipse fill="lightgrey" stroke="black" cx="376.5" cy="-212.07" rx="119.5" ry="58.88"/>
<text text-anchor="middle" x="376.5" y="-238.37" font-family="Times,serif" font-size="14.00">f1: w5, w10, w8, w1, </text>
<text text-anchor="middle" x="376.5" y="-223.37" font-family="Times,serif" font-size="14.00">f2: w7, </text>
<text text-anchor="middle" x="376.5" y="-208.37" font-family="Times,serif" font-size="14.00">f3: w6, w2, w4, </text>
<text text-anchor="middle" x="376.5" y="-193.37" font-family="Times,serif" font-size="14.00">f4: w9, w3, </text>
<text text-anchor="middle" x="376.5" y="-178.37" font-family="Times,serif" font-size="14.00">f5: w11, </text>
</g>
<!-- 3&#45;&gt;5 -->
<g id="edge5" class="edge">
<title>3&#45;&gt;5</title>
<path fill="none" stroke="black" d="M292.98,-311.08C303.1,-299.21 313.9,-286.53 324.26,-274.37"/>
<polygon fill="black" stroke="black" points="327.17,-276.35 331,-266.47 321.85,-271.81 327.17,-276.35"/>
</g>
<!-- 6 -->
<g id="m6" class="node">
<title>6</title>
<ellipse fill="lightgrey" stroke="black" cx="247.5" cy="-58.69" rx="119.5" ry="58.88"/>
<text text-anchor="middle" x="247.5" y="-84.99" font-family="Times,serif" font-size="14.00">f1: w5, w10, w8, w2, </text>
<text text-anchor="middle" x="247.5" y="-69.99" font-family="Times,serif" font-size="14.00">f2: w7, </text>
<text text-anchor="middle" x="247.5" y="-54.99" font-family="Times,serif" font-size="14.00">f3: w6, w4, w1, </text>
<text text-anchor="middle" x="247.5" y="-39.99" font-family="Times,serif" font-size="14.00">f4: w9, w3, </text>
<text text-anchor="middle" x="247.5" y="-24.99" font-family="Times,serif" font-size="14.00">f5: w11, </text>
</g>
<!-- 4&#45;&gt;6 -->
<g id="edge6" class="edge">
<title>4&#45;&gt;6</title>
<path fill="none" stroke="black" d="M164.63,-157.7C174.67,-145.83 185.38,-133.15 195.67,-120.99"/>
<polygon fill="black" stroke="black" points="198.56,-122.98 202.35,-113.09 193.22,-118.47 198.56,-122.98"/>
</g>
<!-- 5&#45;&gt;6 -->
<g id="edge7" class="edge">
<title>5&#45;&gt;6</title>
<path fill="none" stroke="black" d="M331.02,-157.7C320.9,-145.83 310.1,-133.15 299.74,-120.99"/>
<polygon fill="black" stroke="black" points="302.16,-118.43 293.01,-113.09 296.83,-122.97 302.16,-118.43"/>
</g>
</g>
</svg>
