<?xml version="1.0" encoding="UTF-8" standalone="no"?>
<!DOCTYPE svg PUBLIC "-//W3C//DTD SVG 1.1//EN"
 "http://www.w3.org/Graphics/SVG/1.1/DTD/svg11.dtd">
<!-- Generated by graphviz version 8.0.2 (20230410.1723)
 -->
<!-- Title: rotations Pages: 1 -->
<svg width="210pt" height="649pt"
 viewBox="0.00 0.00 209.92 649.16" xmlns="http://www.w3.org/2000/svg" xmlns:xlink="http://www.w3.org/1999/xlink">
<g id="graph0" class="graph" transform="scale(1 1) rotate(0) translate(4 645.16)">
<title>rotations</title>
<polygon fill="white" stroke="none" points="-4,4 -4,-645.16 205.92,-645.16 205.92,4 -4,4"/>
<!-- 1 -->
<g id="r1" class="node">
<title>1</title>
<ellipse fill="lightgrey" stroke="black" cx="98.84" cy="-571.86" rx="48.17" ry="69.09"/>
<text text-anchor="middle" x="98.84" y="-605.66" font-family="Times,serif" font-size="14.00">f4_2,w11</text>
<text text-anchor="middle" x="98.84" y="-590.66" font-family="Times,serif" font-size="14.00">f4_1,w2</text>
<text text-anchor="middle" x="98.84" y="-575.66" font-family="Times,serif" font-size="14.00">f5_1,w1</text>
<text text-anchor="middle" x="98.84" y="-560.66" font-family="Times,serif" font-size="14.00">f1_4,w10</text>
<text text-anchor="middle" x="98.84" y="-545.66" font-family="Times,serif" font-size="14.00">f1_3,w4</text>
<text text-anchor="middle" x="98.84" y="-530.66" font-family="Times,serif" font-size="14.00">f1_2,w5</text>
</g>
<!-- 2 -->
<g id="r2" class="node">
<title>2</title>
<ellipse fill="lightgrey" stroke="black" cx="98.84" cy="-397.27" rx="48.17" ry="69.09"/>
<text text-anchor="middle" x="98.84" y="-431.07" font-family="Times,serif" font-size="14.00">f4_2,w4</text>
<text text-anchor="middle" x="98.84" y="-416.07" font-family="Times,serif" font-size="14.00">f4_1,w11</text>
<text text-anchor="middle" x="98.84" y="-401.07" font-family="Times,serif" font-size="14.00">f3_3,w2</text>
<text text-anchor="middle" x="98.84" y="-386.07" font-family="Times,serif" font-size="14.00">f3_2,w3</text>
<text text-anchor="middle" x="98.84" y="-371.07" font-family="Times,serif" font-size="14.00">f1_4,w8</text>
<text text-anchor="middle" x="98.84" y="-356.07" font-family="Times,serif" font-size="14.00">f1_3,w10</text>
</g>
<!-- 1&#45;&gt;2 -->
<g id="edge1" class="edge">
<title>1&#45;&gt;2</title>
<path fill="none" stroke="black" d="M98.84,-502.65C98.84,-494.46 98.84,-486.04 98.84,-477.71"/>
<polygon fill="black" stroke="black" points="102.34,-477.83 98.84,-467.83 95.34,-477.83 102.34,-477.83"/>
</g>
<!-- 3 -->
<g id="r3" class="node">
<title>3</title>
<ellipse fill="lightgrey" stroke="black" cx="98.84" cy="-201.46" rx="48.17" ry="90.52"/>
<text text-anchor="middle" x="98.84" y="-250.26" font-family="Times,serif" font-size="14.00">f1_1,w5</text>
<text text-anchor="middle" x="98.84" y="-235.26" font-family="Times,serif" font-size="14.00">f4_2,w9</text>
<text text-anchor="middle" x="98.84" y="-220.26" font-family="Times,serif" font-size="14.00">f3_3,w4</text>
<text text-anchor="middle" x="98.84" y="-205.26" font-family="Times,serif" font-size="14.00">f3_2,w2</text>
<text text-anchor="middle" x="98.84" y="-190.26" font-family="Times,serif" font-size="14.00">f5_1,w3</text>
<text text-anchor="middle" x="98.84" y="-175.26" font-family="Times,serif" font-size="14.00">f1_4,w1</text>
<text text-anchor="middle" x="98.84" y="-160.26" font-family="Times,serif" font-size="14.00">f1_3,w8</text>
<text text-anchor="middle" x="98.84" y="-145.26" font-family="Times,serif" font-size="14.00">f1_2,w10</text>
</g>
<!-- 2&#45;&gt;3 -->
<g id="edge2" class="edge">
<title>2&#45;&gt;3</title>
<path fill="none" stroke="black" d="M98.84,-327.94C98.84,-319.91 98.84,-311.59 98.84,-303.23"/>
<polygon fill="black" stroke="black" points="102.34,-303.24 98.84,-293.24 95.34,-303.24 102.34,-303.24"/>
</g>
<!-- 4 -->
<g id="r4" class="node">
<title>4</title>
<ellipse fill="lightgrey" stroke="black" cx="43.84" cy="-37.48" rx="43.68" ry="37.45"/>
<text text-anchor="middle" x="43.84" y="-48.78" font-family="Times,serif" font-size="14.00">f3_3,w1</text>
<text text-anchor="middle" x="43.84" y="-33.78" font-family="Times,serif" font-size="14.00">f3_2,w4</text>
<text text-anchor="middle" x="43.84" y="-18.78" font-family="Times,serif" font-size="14.00">f1_4,w2</text>
</g>
<!-- 3&#45;&gt;4 -->
<g id="edge3" class="edge">
<title>3&#45;&gt;4</title>
<path fill="none" stroke="black" d="M73.11,-124.69C68.39,-110.79 63.61,-96.69 59.31,-84.03"/>
<polygon fill="black" stroke="black" points="62.35,-83.11 55.82,-74.77 55.72,-85.36 62.35,-83.11"/>
</g>
<!-- 5 -->
<g id="r5" class="node">
<title>5</title>
<ellipse fill="lightgrey" stroke="black" cx="153.84" cy="-37.48" rx="48.17" ry="37.45"/>
<text text-anchor="middle" x="153.84" y="-48.78" font-family="Times,serif" font-size="14.00">f4_1,w9</text>
<text text-anchor="middle" x="153.84" y="-33.78" font-family="Times,serif" font-size="14.00">f5_1,w11</text>
<text text-anchor="middle" x="153.84" y="-18.78" font-family="Times,serif" font-size="14.00">f4_2,w3</text>
</g>
<!-- 3&#45;&gt;5 -->
<g id="edge4" class="edge">
<title>3&#45;&gt;5</title>
<path fill="none" stroke="black" d="M124.57,-124.69C129.24,-110.92 133.99,-96.95 138.25,-84.38"/>
<polygon fill="black" stroke="black" points="141.81,-85.78 141.72,-75.19 135.19,-83.53 141.81,-85.78"/>
</g>
</g>
</svg>
