<?xml version="1.0" encoding="UTF-8" standalone="no"?>
<!DOCTYPE svg PUBLIC "-//W3C//DTD SVG 1.1//EN"
 "http://www.w3.org/Graphics/SVG/1.1/DTD/svg11.dtd">
<!-- Generated by graphviz version 2.43.0 (0)
 -->
<!-- Title: rotations Pages: 1 -->
<svg width="242pt" height="649pt"
 viewBox="0.00 0.00 242.19 649.16" xmlns="http://www.w3.org/2000/svg" xmlns:xlink="http://www.w3.org/1999/xlink">
<g id="graph0" class="graph" transform="scale(1 1) rotate(0) translate(4 645.16)">
<title>rotations</title>
<polygon fill="white" stroke="transparent" points="-4,4 -4,-645.16 238.19,-645.16 238.19,4 -4,4"/>
<!-- 1 -->
<g id="r1" class="node">
<title>1</title>
<ellipse fill="lightgrey" stroke="black" cx="113.91" cy="-571.86" rx="57.05" ry="69.09"/>
<text text-anchor="middle" x="113.91" y="-605.66" font-family="Times,serif" font-size="14.00">f4_2,w11</text>
<text text-anchor="middle" x="113.91" y="-590.66" font-family="Times,serif" font-size="14.00">f4_1,w2</text>
<text text-anchor="middle" x="113.91" y="-575.66" font-family="Times,serif" font-size="14.00">f5_1,w1</text>
<text text-anchor="middle" x="113.91" y="-560.66" font-family="Times,serif" font-size="14.00">f1_4,w10</text>
<text text-anchor="middle" x="113.91" y="-545.66" font-family="Times,serif" font-size="14.00">f1_3,w4</text>
<text text-anchor="middle" x="113.91" y="-530.66" font-family="Times,serif" font-size="14.00">f1_2,w5</text>
</g>
<!-- 2 -->
<g id="r2" class="node">
<title>2</title>
<ellipse fill="lightgrey" stroke="black" cx="113.91" cy="-397.27" rx="57.05" ry="69.09"/>
<text text-anchor="middle" x="113.91" y="-431.07" font-family="Times,serif" font-size="14.00">f4_2,w4</text>
<text text-anchor="middle" x="113.91" y="-416.07" font-family="Times,serif" font-size="14.00">f4_1,w11</text>
<text text-anchor="middle" x="113.91" y="-401.07" font-family="Times,serif" font-size="14.00">f3_3,w2</text>
<text text-anchor="middle" x="113.91" y="-386.07" font-family="Times,serif" font-size="14.00">f3_2,w3</text>
<text text-anchor="middle" x="113.91" y="-371.07" font-family="Times,serif" font-size="14.00">f1_4,w8</text>
<text text-anchor="middle" x="113.91" y="-356.07" font-family="Times,serif" font-size="14.00">f1_3,w10</text>
</g>
<!-- 1&#45;&gt;2 -->
<g id="edge1" class="edge">
<title>1&#45;&gt;2</title>
<path fill="none" stroke="black" d="M113.91,-502.15C113.91,-493.87 113.91,-485.35 113.91,-476.94"/>
<polygon fill="black" stroke="black" points="117.41,-476.74 113.91,-466.74 110.41,-476.74 117.41,-476.74"/>
</g>
<!-- 3 -->
<g id="r3" class="node">
<title>3</title>
<ellipse fill="lightgrey" stroke="black" cx="113.91" cy="-201.46" rx="57.05" ry="90.52"/>
<text text-anchor="middle" x="113.91" y="-250.26" font-family="Times,serif" font-size="14.00">f1_1,w5</text>
<text text-anchor="middle" x="113.91" y="-235.26" font-family="Times,serif" font-size="14.00">f4_2,w9</text>
<text text-anchor="middle" x="113.91" y="-220.26" font-family="Times,serif" font-size="14.00">f3_3,w4</text>
<text text-anchor="middle" x="113.91" y="-205.26" font-family="Times,serif" font-size="14.00">f3_2,w2</text>
<text text-anchor="middle" x="113.91" y="-190.26" font-family="Times,serif" font-size="14.00">f5_1,w3</text>
<text text-anchor="middle" x="113.91" y="-175.26" font-family="Times,serif" font-size="14.00">f1_4,w1</text>
<text text-anchor="middle" x="113.91" y="-160.26" font-family="Times,serif" font-size="14.00">f1_3,w8</text>
<text text-anchor="middle" x="113.91" y="-145.26" font-family="Times,serif" font-size="14.00">f1_2,w10</text>
</g>
<!-- 2&#45;&gt;3 -->
<g id="edge2" class="edge">
<title>2&#45;&gt;3</title>
<path fill="none" stroke="black" d="M113.91,-327.94C113.91,-319.64 113.91,-311.03 113.91,-302.38"/>
<polygon fill="black" stroke="black" points="117.41,-302.24 113.91,-292.24 110.41,-302.24 117.41,-302.24"/>
</g>
<!-- 4 -->
<g id="r4" class="node">
<title>4</title>
<ellipse fill="lightgrey" stroke="black" cx="50.91" cy="-37.48" rx="50.82" ry="37.45"/>
<text text-anchor="middle" x="50.91" y="-48.78" font-family="Times,serif" font-size="14.00">f3_3,w1</text>
<text text-anchor="middle" x="50.91" y="-33.78" font-family="Times,serif" font-size="14.00">f3_2,w4</text>
<text text-anchor="middle" x="50.91" y="-18.78" font-family="Times,serif" font-size="14.00">f1_4,w2</text>
</g>
<!-- 3&#45;&gt;4 -->
<g id="edge3" class="edge">
<title>3&#45;&gt;4</title>
<path fill="none" stroke="black" d="M84.07,-123.74C78.65,-109.79 73.16,-95.68 68.25,-83.06"/>
<polygon fill="black" stroke="black" points="71.51,-81.77 64.62,-73.72 64.98,-84.31 71.51,-81.77"/>
</g>
<!-- 5 -->
<g id="r5" class="node">
<title>5</title>
<ellipse fill="lightgrey" stroke="black" cx="176.91" cy="-37.48" rx="57.05" ry="37.45"/>
<text text-anchor="middle" x="176.91" y="-48.78" font-family="Times,serif" font-size="14.00">f4_1,w9</text>
<text text-anchor="middle" x="176.91" y="-33.78" font-family="Times,serif" font-size="14.00">f5_1,w11</text>
<text text-anchor="middle" x="176.91" y="-18.78" font-family="Times,serif" font-size="14.00">f4_2,w3</text>
</g>
<!-- 3&#45;&gt;5 -->
<g id="edge4" class="edge">
<title>3&#45;&gt;5</title>
<path fill="none" stroke="black" d="M143.75,-123.74C149.07,-110.06 154.45,-96.22 159.29,-83.78"/>
<polygon fill="black" stroke="black" points="162.68,-84.72 163.04,-74.13 156.16,-82.19 162.68,-84.72"/>
</g>
</g>
</svg>
